<?xml version="1.0" standalone="no"?>
<!DOCTYPE svg PUBLIC "-//W3C//DTD SVG 20010904//EN"
 "http://www.w3.org/TR/2001/REC-SVG-20010904/DTD/svg10.dtd">
<svg version="1.0" xmlns="http://www.w3.org/2000/svg"
 width="300.000000pt" height="300.000000pt" viewBox="0 0 300.000000 300.000000"
 preserveAspectRatio="xMidYMid meet">
<metadata>
Created by potrace 1.10, written by Peter Selinger 2001-2011
</metadata>
<g transform="translate(0.000000,300.000000) scale(0.100000,-0.100000)"
fill="#000000" stroke="none">
<path d="M1155 2526 c-22 -16 -14 -46 13 -46 31 0 46 25 27 44 -20 19 -17 19
-40 2z"/>
<path d="M1460 2516 c0 -16 -6 -26 -15 -26 -8 0 -15 -7 -15 -15 0 -9 7 -18 15
-21 11 -4 15 -21 15 -58 0 -29 5 -57 12 -64 13 -13 88 -17 88 -4 0 16 -18 34
-28 28 -18 -11 -33 21 -26 58 4 26 11 36 25 36 12 0 19 7 19 20 0 13 -7 20
-20 20 -13 0 -20 7 -20 20 0 11 -4 20 -9 20 -5 0 -16 3 -25 6 -12 5 -16 0 -16
-20z"/>
<path d="M1303 2480 c-32 -13 -44 -41 -30 -71 10 -19 21 -25 60 -27 33 -2 47
-7 47 -18 0 -15 -12 -17 -67 -14 -27 1 -33 -2 -33 -19 0 -19 6 -21 50 -21 41
0 56 5 75 25 30 29 31 39 5 65 -13 13 -33 20 -61 20 -55 0 -47 24 9 28 34 3
42 7 42 23 0 15 -7 19 -37 18 -21 0 -48 -4 -60 -9z"/>
<path d="M1179 2453 c-14 -3 -13 -12 8 -76 12 -39 23 -77 23 -85 0 -9 7 -11
23 -6 12 3 23 8 25 9 8 7 -44 165 -53 164 -5 -1 -17 -3 -26 -6z"/>
<path d="M1037 2438 c-12 -6 -16 -16 -11 -30 3 -11 1 -24 -5 -28 -18 -10 -2
-38 18 -33 13 3 20 -2 24 -20 10 -37 46 -77 71 -77 12 0 32 7 44 16 19 13 21
19 11 30 -8 10 -15 12 -23 4 -18 -18 -32 -11 -49 25 -22 45 -21 52 3 60 16 5
18 9 7 25 -7 13 -15 16 -21 10 -15 -15 -36 -12 -36 4 0 21 -12 26 -33 14z"/>
<path d="M928 2324 c-15 -8 -32 -23 -38 -34 -6 -12 -14 -19 -18 -16 -4 2 -16
-2 -26 -9 -17 -13 -15 -18 36 -83 51 -66 55 -68 76 -54 l22 14 -35 41 c-37 43
-43 65 -23 85 27 27 45 15 115 -77 2 -3 12 4 23 15 20 19 19 20 -33 77 -29 31
-57 57 -63 57 -5 -1 -21 -7 -36 -16z"/>
<path d="M1731 2302 c-12 -22 3 -42 31 -42 24 0 34 26 18 45 -17 20 -37 19
-49 -3z"/>
<path d="M2030 2224 c-52 -19 -101 -37 -109 -39 -11 -4 -10 -9 4 -25 14 -15
22 -17 43 -9 23 9 30 5 65 -29 35 -35 38 -42 27 -62 -10 -18 -8 -25 6 -41 10
-11 19 -27 20 -36 6 -39 23 -36 119 21 85 51 94 59 85 77 -6 10 -15 19 -20 19
-5 0 -46 -23 -90 -51 -44 -28 -83 -49 -86 -46 -3 3 15 53 40 112 37 89 43 110
33 126 -15 25 -24 24 -137 -17z m78 -59 l-22 -45 -23 22 c-30 28 -29 35 10 52
54 24 59 20 35 -29z"/>
<path d="M748 2151 c-25 -22 -32 -37 -32 -64 0 -104 139 -120 180 -21 18 43
18 44 -6 44 -12 0 -24 -9 -29 -23 -12 -30 -36 -49 -57 -45 -13 2 -7 14 26 56
23 29 41 54 39 56 -14 12 -51 26 -68 26 -11 0 -35 -13 -53 -29z m72 -18 c0 -5
-13 -23 -29 -42 -28 -34 -29 -34 -36 -12 -5 15 -1 29 11 42 17 18 54 27 54 12z"/>
<path d="M582 2048 c-16 -16 -15 -33 2 -47 11 -9 18 -8 30 4 9 9 16 20 16 24
0 8 -22 31 -30 31 -3 0 -11 -5 -18 -12z"/>
<path d="M645 1999 c-4 -11 -5 -21 -3 -22 1 -1 35 -19 75 -40 71 -37 72 -37
83 -16 7 11 10 22 8 23 -10 9 -144 76 -149 76 -4 0 -11 -9 -14 -21z"/>
<path d="M2190 1937 c-58 -5 -106 -10 -108 -12 -1 -1 1 -10 4 -20 6 -15 16
-17 78 -12 39 4 113 9 164 13 75 5 92 9 88 21 -3 8 -6 17 -6 19 0 6 -102 2
-220 -9z"/>
<path d="M612 1907 c-41 -44 -38 -110 7 -144 30 -23 89 -16 116 13 41 44 31
148 -10 114 -9 -7 -12 -23 -8 -45 7 -41 -20 -61 -60 -46 -36 14 -44 47 -18 75
24 25 28 56 8 56 -8 0 -23 -10 -35 -23z"/>
<path d="M2267 1832 c-91 -14 -97 -16 -91 -36 9 -30 7 -29 69 -16 31 6 59 10
61 7 3 -2 -18 -23 -46 -45 -45 -36 -49 -42 -35 -55 8 -9 38 -23 67 -33 l53
-18 -35 -7 c-19 -4 -51 -10 -71 -14 -32 -5 -36 -8 -31 -30 3 -18 9 -24 21 -21
14 5 90 17 180 29 56 8 30 45 -54 77 -33 13 -64 26 -68 30 -5 4 19 29 52 56
42 34 61 56 61 72 0 25 4 25 -133 4z"/>
<path d="M500 1704 c-13 -33 -13 -90 1 -115 5 -11 22 -24 36 -30 38 -14 68 10
88 71 12 37 22 50 36 50 15 0 19 -7 19 -38 0 -21 -7 -47 -15 -59 -14 -20 -14
-23 4 -33 27 -14 28 -14 40 21 18 52 14 116 -9 139 -40 40 -88 19 -111 -51
-17 -49 -29 -62 -45 -48 -17 14 -18 53 -3 81 9 16 8 23 -2 29 -22 14 -29 11
-39 -17z"/>
<path d="M2197 1498 c-3 -24 -9 -62 -13 -85 -6 -39 -4 -43 13 -43 21 0 33 32
33 88 0 24 2 24 48 18 84 -12 117 -17 129 -21 9 -3 29 43 21 50 -2 1 -46 8
-98 14 -52 7 -102 14 -111 17 -13 3 -18 -5 -22 -38z"/>
<path d="M650 1430 c-79 -27 -95 -56 -66 -124 16 -38 33 -53 47 -39 7 7 4 23
-7 47 -16 33 -17 38 -2 53 15 14 17 12 29 -26 16 -54 42 -74 75 -59 14 6 27
21 30 33 6 26 -11 75 -28 75 -9 0 -9 3 -1 11 13 13 5 49 -11 48 -6 0 -36 -9
-66 -19z m58 -52 c15 -15 15 -45 0 -54 -13 -8 -38 22 -38 48 0 21 20 24 38 6z"/>
<path d="M751 1276 c-8 -10 -9 -16 -1 -21 18 -11 11 -25 -22 -45 -39 -24 -58
-25 -58 -5 0 17 -25 20 -35 5 -3 -5 -1 -19 5 -30 8 -16 8 -20 -4 -20 -22 0
-28 -17 -16 -40 9 -17 14 -19 26 -9 10 8 18 8 27 1 15 -13 43 1 33 16 -4 6 8
18 26 28 68 34 80 57 56 109 -13 29 -21 31 -37 11z"/>
<path d="M2108 1220 c-42 -77 -44 -85 -24 -93 10 -4 25 12 45 48 29 52 32 54
56 43 l25 -11 -27 -49 c-23 -42 -25 -51 -12 -59 21 -13 26 -11 33 14 3 12 14
33 24 46 16 20 22 22 40 12 l21 -11 -30 -51 c-16 -28 -27 -55 -24 -60 15 -22
36 -4 73 63 l39 72 -95 53 c-53 29 -99 53 -102 53 -3 0 -22 -32 -42 -70z"/>
<path d="M778 1127 c-46 -41 -52 -52 -49 -90 1 -20 62 -87 79 -87 5 0 12 9 15
20 3 13 -1 21 -14 25 -24 8 -42 42 -34 62 4 13 13 9 46 -23 38 -38 41 -38 67
-24 15 9 28 25 30 36 3 24 -33 74 -54 74 -8 0 -12 5 -9 10 7 11 -11 40 -24 40
-3 0 -27 -19 -53 -43z m91 -45 c17 -32 -8 -46 -36 -20 -13 12 -23 25 -23 30 0
16 50 8 59 -10z"/>
<path d="M2036 1111 c-15 -16 -13 -20 24 -56 41 -40 49 -62 28 -83 -20 -20
-41 -14 -83 28 -40 39 -42 40 -58 22 -17 -18 -15 -21 32 -65 36 -33 58 -47 79
-47 32 0 72 36 72 64 0 9 5 14 10 11 11 -7 40 11 40 24 0 3 -29 32 -64 63 -60
54 -65 56 -80 39z"/>
<path d="M1832 1013 c-40 -19 -72 -58 -72 -87 0 -24 86 -176 99 -176 13 0 32
26 24 33 -3 4 8 7 24 7 23 0 39 9 57 31 34 41 33 73 -4 111 -26 25 -36 29 -63
24 -18 -3 -42 -17 -54 -31 -28 -32 -33 -31 -33 5 0 23 7 33 30 45 16 8 36 15
45 15 8 0 15 9 15 20 0 24 -23 26 -68 3z m102 -125 c12 -20 2 -44 -27 -62 -36
-23 -75 36 -46 70 16 19 59 14 73 -8z"/>
<path d="M909 986 c-60 -34 -79 -118 -36 -167 26 -31 101 -89 113 -89 7 0 121
156 131 180 5 11 -116 81 -149 86 -19 2 -44 -2 -59 -10z m115 -60 l30 -23 -39
-54 c-21 -30 -40 -56 -42 -58 -1 -2 -18 8 -38 23 -28 22 -35 34 -35 62 0 69
67 96 124 50z"/>
<path d="M1632 924 c-17 -7 -38 -24 -47 -38 -16 -24 -16 -31 7 -120 21 -86 25
-95 43 -89 11 3 22 9 25 12 3 4 21 8 40 9 74 5 108 86 59 138 -26 28 -89 33
-109 9 -17 -21 -30 -19 -30 5 0 27 43 53 80 48 28 -4 36 4 28 30 -5 12 -64 10
-96 -4z m98 -124 c20 -37 -20 -78 -61 -65 -24 8 -35 50 -19 70 18 22 67 19 80
-5z"/>
<path d="M1290 825 c0 -31 26 -43 47 -22 21 21 9 47 -22 47 -20 0 -25 -5 -25
-25z"/>
</g>
</svg>
